<mxfile host="app.diagrams.net" agent="Mozilla/5.0 (Windows NT 10.0; Win64; x64) AppleWebKit/537.36 (KHTML, like Gecko) Chrome/127.0.0.0 Safari/537.36" version="24.7.8">
  <diagram name="Page-1" id="M_RSFYT3KrfDH6iwmqcM">
    <mxGraphModel dx="3054" dy="1876" grid="1" gridSize="10" guides="1" tooltips="1" connect="1" arrows="1" fold="1" page="1" pageScale="1" pageWidth="827" pageHeight="1169" math="0" shadow="0">
      <root>
        <mxCell id="0" />
        <mxCell id="1" parent="0" />
        <mxCell id="Av87Tej5Dab4ND_RzltO-42" value="" style="group" vertex="1" connectable="0" parent="1">
          <mxGeometry x="-1410" y="-50" width="914" height="870" as="geometry" />
        </mxCell>
        <mxCell id="Av87Tej5Dab4ND_RzltO-1" value="Interface web de mesure de performance" style="shape=umlLifeline;perimeter=lifelinePerimeter;whiteSpace=wrap;html=1;container=0;dropTarget=0;collapsible=0;recursiveResize=0;outlineConnect=0;portConstraint=eastwest;newEdgeStyle={&quot;edgeStyle&quot;:&quot;elbowEdgeStyle&quot;,&quot;elbow&quot;:&quot;vertical&quot;,&quot;curved&quot;:0,&quot;rounded&quot;:0};" vertex="1" parent="Av87Tej5Dab4ND_RzltO-42">
          <mxGeometry x="166" y="10" width="140" height="440" as="geometry" />
        </mxCell>
        <mxCell id="Av87Tej5Dab4ND_RzltO-2" value="" style="html=1;points=[[0,0,0,0,5],[0,1,0,0,-5],[1,0,0,0,5],[1,1,0,0,-5]];perimeter=orthogonalPerimeter;outlineConnect=0;targetShapes=umlLifeline;portConstraint=eastwest;newEdgeStyle={&quot;curved&quot;:0,&quot;rounded&quot;:0};" vertex="1" parent="Av87Tej5Dab4ND_RzltO-1">
          <mxGeometry x="63" y="200" width="10" height="80" as="geometry" />
        </mxCell>
        <mxCell id="Av87Tej5Dab4ND_RzltO-3" value="" style="html=1;points=[[0,0,0,0,5],[0,1,0,0,-5],[1,0,0,0,5],[1,1,0,0,-5]];perimeter=orthogonalPerimeter;outlineConnect=0;targetShapes=umlLifeline;portConstraint=eastwest;newEdgeStyle={&quot;curved&quot;:0,&quot;rounded&quot;:0};" vertex="1" parent="Av87Tej5Dab4ND_RzltO-1">
          <mxGeometry x="65" y="325" width="10" height="95" as="geometry" />
        </mxCell>
        <mxCell id="Av87Tej5Dab4ND_RzltO-4" value="Machine virtuelle(serveur DNS)" style="shape=umlLifeline;perimeter=lifelinePerimeter;whiteSpace=wrap;html=1;container=0;dropTarget=0;collapsible=0;recursiveResize=0;outlineConnect=0;portConstraint=eastwest;newEdgeStyle={&quot;edgeStyle&quot;:&quot;elbowEdgeStyle&quot;,&quot;elbow&quot;:&quot;vertical&quot;,&quot;curved&quot;:0,&quot;rounded&quot;:0};" vertex="1" parent="Av87Tej5Dab4ND_RzltO-42">
          <mxGeometry x="323.69000000000005" y="10" width="140" height="860" as="geometry" />
        </mxCell>
        <mxCell id="Av87Tej5Dab4ND_RzltO-5" value="Base de donnée" style="shape=umlLifeline;perimeter=lifelinePerimeter;whiteSpace=wrap;html=1;container=0;dropTarget=0;collapsible=0;recursiveResize=0;outlineConnect=0;portConstraint=eastwest;newEdgeStyle={&quot;edgeStyle&quot;:&quot;elbowEdgeStyle&quot;,&quot;elbow&quot;:&quot;vertical&quot;,&quot;curved&quot;:0,&quot;rounded&quot;:0};" vertex="1" parent="Av87Tej5Dab4ND_RzltO-42">
          <mxGeometry x="485" y="10" width="100" height="860" as="geometry" />
        </mxCell>
        <mxCell id="Av87Tej5Dab4ND_RzltO-6" value="" style="html=1;points=[[0,0,0,0,5],[0,1,0,0,-5],[1,0,0,0,5],[1,1,0,0,-5]];perimeter=orthogonalPerimeter;outlineConnect=0;targetShapes=umlLifeline;portConstraint=eastwest;newEdgeStyle={&quot;curved&quot;:0,&quot;rounded&quot;:0};" vertex="1" parent="Av87Tej5Dab4ND_RzltO-5">
          <mxGeometry x="45" y="372.5" width="10" height="37.5" as="geometry" />
        </mxCell>
        <mxCell id="Av87Tej5Dab4ND_RzltO-7" value="Système de surveillance" style="shape=umlLifeline;perimeter=lifelinePerimeter;whiteSpace=wrap;html=1;container=0;dropTarget=0;collapsible=0;recursiveResize=0;outlineConnect=0;portConstraint=eastwest;newEdgeStyle={&quot;edgeStyle&quot;:&quot;elbowEdgeStyle&quot;,&quot;elbow&quot;:&quot;vertical&quot;,&quot;curved&quot;:0,&quot;rounded&quot;:0};" vertex="1" parent="Av87Tej5Dab4ND_RzltO-42">
          <mxGeometry x="615" y="10" width="100" height="860" as="geometry" />
        </mxCell>
        <mxCell id="Av87Tej5Dab4ND_RzltO-8" value="Système IA pour la détection de trafic DNS malveillant" style="shape=umlLifeline;perimeter=lifelinePerimeter;whiteSpace=wrap;html=1;container=0;dropTarget=0;collapsible=0;recursiveResize=0;outlineConnect=0;portConstraint=eastwest;newEdgeStyle={&quot;edgeStyle&quot;:&quot;elbowEdgeStyle&quot;,&quot;elbow&quot;:&quot;vertical&quot;,&quot;curved&quot;:0,&quot;rounded&quot;:0};" vertex="1" parent="Av87Tej5Dab4ND_RzltO-42">
          <mxGeometry x="754" y="10" width="160" height="800" as="geometry" />
        </mxCell>
        <mxCell id="Av87Tej5Dab4ND_RzltO-9" value="" style="shape=umlLifeline;perimeter=lifelinePerimeter;whiteSpace=wrap;html=1;container=1;dropTarget=0;collapsible=0;recursiveResize=0;outlineConnect=0;portConstraint=eastwest;newEdgeStyle={&quot;curved&quot;:0,&quot;rounded&quot;:0};participant=umlActor;" vertex="1" parent="Av87Tej5Dab4ND_RzltO-42">
          <mxGeometry x="45" width="20" height="860" as="geometry" />
        </mxCell>
        <mxCell id="Av87Tej5Dab4ND_RzltO-10" value="&lt;span style=&quot;text-wrap: nowrap;&quot;&gt;Administrateur&amp;nbsp;&lt;/span&gt;&lt;div&gt;&lt;span style=&quot;text-wrap: nowrap;&quot;&gt;Système&lt;/span&gt;&lt;/div&gt;" style="text;whiteSpace=wrap;html=1;align=center;fillColor=#FFFFFF;" vertex="1" parent="Av87Tej5Dab4ND_RzltO-42">
          <mxGeometry y="40" width="110" height="40" as="geometry" />
        </mxCell>
        <mxCell id="Av87Tej5Dab4ND_RzltO-11" value="Lancer un test de mesure&amp;nbsp;&lt;div&gt;de performance&lt;/div&gt;" style="html=1;verticalAlign=bottom;endArrow=block;curved=0;rounded=0;" edge="1" parent="Av87Tej5Dab4ND_RzltO-42">
          <mxGeometry y="7" relative="1" as="geometry">
            <mxPoint x="56.73076923076928" y="219" as="sourcePoint" />
            <mxPoint x="227" y="219" as="targetPoint" />
            <mxPoint as="offset" />
          </mxGeometry>
        </mxCell>
        <mxCell id="Av87Tej5Dab4ND_RzltO-12" value="Exécuter le test" style="html=1;verticalAlign=bottom;endArrow=block;curved=0;rounded=0;" edge="1" parent="Av87Tej5Dab4ND_RzltO-42">
          <mxGeometry relative="1" as="geometry">
            <mxPoint x="242" y="226" as="sourcePoint" />
            <mxPoint x="391.19000000000005" y="226.00000000000023" as="targetPoint" />
          </mxGeometry>
        </mxCell>
        <mxCell id="Av87Tej5Dab4ND_RzltO-13" value="Envoyer les résultats de test" style="html=1;verticalAlign=bottom;endArrow=open;dashed=1;endSize=8;curved=0;rounded=0;" edge="1" parent="Av87Tej5Dab4ND_RzltO-42" target="Av87Tej5Dab4ND_RzltO-1">
          <mxGeometry x="-0.0219" y="-10" relative="1" as="geometry">
            <mxPoint x="287" y="280" as="targetPoint" />
            <mxPoint x="392" y="280" as="sourcePoint" />
            <mxPoint as="offset" />
          </mxGeometry>
        </mxCell>
        <mxCell id="Av87Tej5Dab4ND_RzltO-14" value="Visualiser les résultats" style="html=1;verticalAlign=bottom;endArrow=open;dashed=1;endSize=8;curved=0;rounded=0;" edge="1" parent="Av87Tej5Dab4ND_RzltO-42" target="Av87Tej5Dab4ND_RzltO-9">
          <mxGeometry x="-0.0065" y="-10" relative="1" as="geometry">
            <mxPoint x="133" y="350" as="targetPoint" />
            <mxPoint x="225" y="280" as="sourcePoint" />
            <Array as="points">
              <mxPoint x="205" y="280" />
            </Array>
            <mxPoint as="offset" />
          </mxGeometry>
        </mxCell>
        <mxCell id="Av87Tej5Dab4ND_RzltO-15" value="Sauvegarder les résultats&amp;nbsp;&lt;div&gt;et télécharger le rapport de test&lt;/div&gt;" style="html=1;verticalAlign=bottom;endArrow=block;curved=0;rounded=0;" edge="1" parent="Av87Tej5Dab4ND_RzltO-42" source="Av87Tej5Dab4ND_RzltO-9">
          <mxGeometry x="-0.0015" y="10" relative="1" as="geometry">
            <mxPoint x="59.000769230769265" y="340" as="sourcePoint" />
            <mxPoint x="229" y="340" as="targetPoint" />
            <mxPoint as="offset" />
          </mxGeometry>
        </mxCell>
        <mxCell id="Av87Tej5Dab4ND_RzltO-16" value="Sauvegarder les résultats" style="html=1;verticalAlign=bottom;endArrow=block;curved=0;rounded=0;" edge="1" parent="Av87Tej5Dab4ND_RzltO-42">
          <mxGeometry relative="1" as="geometry">
            <mxPoint x="244" y="390" as="sourcePoint" />
            <mxPoint x="533.4999999999995" y="390" as="targetPoint" />
          </mxGeometry>
        </mxCell>
        <mxCell id="Av87Tej5Dab4ND_RzltO-17" value="Rapport sous forme PDF" style="html=1;verticalAlign=bottom;endArrow=open;dashed=1;endSize=8;curved=0;rounded=0;" edge="1" parent="Av87Tej5Dab4ND_RzltO-42">
          <mxGeometry relative="1" as="geometry">
            <mxPoint x="56.59090909090901" y="420" as="targetPoint" />
            <mxPoint x="227" y="420" as="sourcePoint" />
          </mxGeometry>
        </mxCell>
        <mxCell id="Av87Tej5Dab4ND_RzltO-18" value="Analyser le trafic DNS et détecter s&#39;il y a un trafic malveillant" style="html=1;verticalAlign=bottom;endArrow=open;curved=0;rounded=0;endFill=0;exitX=0;exitY=0;exitDx=0;exitDy=5;exitPerimeter=0;" edge="1" parent="Av87Tej5Dab4ND_RzltO-42">
          <mxGeometry x="-0.0029" relative="1" as="geometry">
            <mxPoint x="827" y="729" as="sourcePoint" />
            <mxPoint x="400" y="728" as="targetPoint" />
            <mxPoint as="offset" />
            <Array as="points">
              <mxPoint x="547.19" y="728" />
            </Array>
          </mxGeometry>
        </mxCell>
        <mxCell id="Av87Tej5Dab4ND_RzltO-19" value="Envoyer des résultats d&#39;analyse" style="html=1;verticalAlign=bottom;endArrow=open;curved=0;rounded=0;endFill=0;entryX=1;entryY=0;entryDx=0;entryDy=5;entryPerimeter=0;" edge="1" parent="Av87Tej5Dab4ND_RzltO-42" source="Av87Tej5Dab4ND_RzltO-39">
          <mxGeometry x="-0.0065" y="-9" relative="1" as="geometry">
            <mxPoint x="823" y="770.5" as="sourcePoint" />
            <mxPoint x="672" y="769.5" as="targetPoint" />
            <mxPoint y="-1" as="offset" />
          </mxGeometry>
        </mxCell>
        <mxCell id="Av87Tej5Dab4ND_RzltO-20" value="ref" style="shape=umlFrame;whiteSpace=wrap;html=1;pointerEvents=0;width=50;height=20;fillColor=#D5E8D4;fontColor=#333333;strokeColor=#000000;swimlaneFillColor=default;" vertex="1" parent="Av87Tej5Dab4ND_RzltO-42">
          <mxGeometry x="56" y="136" width="479" height="30" as="geometry" />
        </mxCell>
        <mxCell id="Av87Tej5Dab4ND_RzltO-21" value="&lt;span style=&quot;color: rgb(0, 0, 0); font-family: Helvetica; font-size: 11px; font-style: normal; font-variant-ligatures: normal; font-variant-caps: normal; font-weight: 400; letter-spacing: normal; orphans: 2; text-align: center; text-indent: 0px; text-transform: none; widows: 2; word-spacing: 0px; -webkit-text-stroke-width: 0px; white-space: nowrap; background-color: rgb(255, 255, 255); text-decoration-thickness: initial; text-decoration-style: initial; text-decoration-color: initial; display: inline !important; float: none;&quot;&gt;Authentification interface web de mesure de performance&lt;/span&gt;" style="text;whiteSpace=wrap;html=1;" vertex="1" parent="Av87Tej5Dab4ND_RzltO-42">
          <mxGeometry x="175" y="137" width="217" height="40" as="geometry" />
        </mxCell>
        <mxCell id="Av87Tej5Dab4ND_RzltO-22" value="" style="group" vertex="1" connectable="0" parent="Av87Tej5Dab4ND_RzltO-42">
          <mxGeometry x="45" y="460" width="630" height="220" as="geometry" />
        </mxCell>
        <mxCell id="Av87Tej5Dab4ND_RzltO-23" value="Collecter les données des états&amp;nbsp;&lt;div&gt;de serveur DNSen temps réel&lt;/div&gt;" style="html=1;verticalAlign=bottom;endArrow=open;curved=0;rounded=0;endFill=0;" edge="1" parent="Av87Tej5Dab4ND_RzltO-22">
          <mxGeometry x="-0.0009" relative="1" as="geometry">
            <mxPoint x="615" y="21.000000000000227" as="sourcePoint" />
            <mxPoint x="355" y="21" as="targetPoint" />
            <mxPoint as="offset" />
          </mxGeometry>
        </mxCell>
        <mxCell id="Av87Tej5Dab4ND_RzltO-24" value="Sauvegarder&amp;nbsp;&lt;div&gt;les données&lt;/div&gt;" style="html=1;verticalAlign=bottom;endArrow=none;curved=0;rounded=0;endFill=0;startArrow=open;startFill=0;exitX=1;exitY=0;exitDx=0;exitDy=5;exitPerimeter=0;" edge="1" parent="Av87Tej5Dab4ND_RzltO-22">
          <mxGeometry x="0.0037" relative="1" as="geometry">
            <mxPoint x="495" y="54.99999999999977" as="sourcePoint" />
            <mxPoint x="615" y="54.99999999999977" as="targetPoint" />
            <mxPoint as="offset" />
          </mxGeometry>
        </mxCell>
        <mxCell id="Av87Tej5Dab4ND_RzltO-25" value="DashBoards affichés en temps réel&amp;nbsp;" style="html=1;verticalAlign=bottom;endArrow=open;dashed=1;endSize=8;curved=0;rounded=0;" edge="1" parent="Av87Tej5Dab4ND_RzltO-22">
          <mxGeometry x="0.4262" relative="1" as="geometry">
            <mxPoint x="10" y="170" as="targetPoint" />
            <mxPoint x="620" y="170" as="sourcePoint" />
            <mxPoint as="offset" />
          </mxGeometry>
        </mxCell>
        <mxCell id="Av87Tej5Dab4ND_RzltO-26" value="loop surveillance continue&amp;nbsp;" style="shape=umlFrame;whiteSpace=wrap;html=1;pointerEvents=0;width=150;height=20;fillColor=#D5E8D4;" vertex="1" parent="Av87Tej5Dab4ND_RzltO-22">
          <mxGeometry x="10" y="-10" width="610" height="220" as="geometry" />
        </mxCell>
        <mxCell id="Av87Tej5Dab4ND_RzltO-27" value="&lt;span style=&quot;color: rgba(0, 0, 0, 0); font-family: monospace; font-size: 0px; text-align: start;&quot;&gt;%3CmxGraphModel%3E%3Croot%3E%3CmxCell%20id%3D%220%22%2F%3E%3CmxCell%20id%3D%221%22%20parent%3D%220%22%2F%3E%3CmxCell%20id%3D%222%22%20value%3D%22%22%20style%3D%22html%3D1%3Bpoints%3D%5B%5B0%2C0%2C0%2C0%2C5%5D%2C%5B0%2C1%2C0%2C0%2C-5%5D%2C%5B1%2C0%2C0%2C0%2C5%5D%2C%5B1%2C1%2C0%2C0%2C-5%5D%5D%3Bperimeter%3DorthogonalPerimeter%3BoutlineConnect%3D0%3BtargetShapes%3DumlLifeline%3BportConstraint%3Deastwest%3BnewEdgeStyle%3D%7B%26quot%3Bcurved%26quot%3B%3A0%2C%26quot%3Brounded%26quot%3B%3A0%7D%3B%22%20vertex%3D%221%22%20parent%3D%221%22%3E%3CmxGeometry%20x%3D%22-1026%22%20y%3D%22430%22%20width%3D%2210%22%20height%3D%2250%22%20as%3D%22geometry%22%2F%3E%3C%2FmxCell%3E%3C%2Froot%3E%3C%2FmxGraphModel%3E&lt;/span&gt;" style="html=1;points=[[0,0,0,0,5],[0,1,0,0,-5],[1,0,0,0,5],[1,1,0,0,-5]];perimeter=orthogonalPerimeter;outlineConnect=0;targetShapes=umlLifeline;portConstraint=eastwest;newEdgeStyle={&quot;curved&quot;:0,&quot;rounded&quot;:0};" vertex="1" parent="Av87Tej5Dab4ND_RzltO-22">
          <mxGeometry x="342" y="10" width="10" height="200" as="geometry" />
        </mxCell>
        <mxCell id="Av87Tej5Dab4ND_RzltO-28" value="Déclencher une alerte&lt;div&gt;&amp;nbsp;en cas de problème&lt;/div&gt;" style="html=1;verticalAlign=bottom;endArrow=open;curved=0;rounded=0;endFill=0;" edge="1" parent="Av87Tej5Dab4ND_RzltO-22">
          <mxGeometry x="-1" y="213" relative="1" as="geometry">
            <mxPoint x="342" y="97" as="sourcePoint" />
            <mxPoint x="10" y="97" as="targetPoint" />
            <mxPoint x="213" y="-211" as="offset" />
          </mxGeometry>
        </mxCell>
        <mxCell id="Av87Tej5Dab4ND_RzltO-29" value="Consulter les DashBoards" style="html=1;verticalAlign=bottom;endArrow=none;curved=0;rounded=0;endFill=0;" edge="1" parent="Av87Tej5Dab4ND_RzltO-22" target="Av87Tej5Dab4ND_RzltO-27">
          <mxGeometry x="-0.0663" relative="1" as="geometry">
            <mxPoint x="10" y="130" as="sourcePoint" />
            <mxPoint x="335" y="130" as="targetPoint" />
            <mxPoint as="offset" />
          </mxGeometry>
        </mxCell>
        <mxCell id="Av87Tej5Dab4ND_RzltO-30" value="" style="html=1;points=[[0,0,0,0,5],[0,1,0,0,-5],[1,0,0,0,5],[1,1,0,0,-5]];perimeter=orthogonalPerimeter;outlineConnect=0;targetShapes=umlLifeline;portConstraint=eastwest;newEdgeStyle={&quot;curved&quot;:0,&quot;rounded&quot;:0};" vertex="1" parent="Av87Tej5Dab4ND_RzltO-22">
          <mxGeometry x="485" y="30" width="10" height="180" as="geometry" />
        </mxCell>
        <mxCell id="Av87Tej5Dab4ND_RzltO-31" value="&lt;span style=&quot;color: rgba(0, 0, 0, 0); font-family: monospace; font-size: 0px; text-align: start;&quot;&gt;%3CmxGraphModel%3E%3Croot%3E%3CmxCell%20id%3D%220%22%2F%3E%3CmxCell%20id%3D%221%22%20parent%3D%220%22%2F%3E%3CmxCell%20id%3D%222%22%20value%3D%22%22%20style%3D%22html%3D1%3Bpoints%3D%5B%5B0%2C0%2C0%2C0%2C5%5D%2C%5B0%2C1%2C0%2C0%2C-5%5D%2C%5B1%2C0%2C0%2C0%2C5%5D%2C%5B1%2C1%2C0%2C0%2C-5%5D%5D%3Bperimeter%3DorthogonalPerimeter%3BoutlineConnect%3D0%3BtargetShapes%3DumlLifeline%3BportConstraint%3Deastwest%3BnewEdgeStyle%3D%7B%26quot%3Bcurved%26quot%3B%3A0%2C%26quot%3Brounded%26quot%3B%3A0%7D%3B%22%20vertex%3D%221%22%20parent%3D%221%22%3E%3CmxGeometry%20x%3D%22-1026%22%20y%3D%22430%22%20width%3D%2210%22%20height%3D%2250%22%20as%3D%22geometry%22%2F%3E%3C%2FmxCell%3E%3C%2Froot%3E%3C%2FmxGraphModel%3E&lt;/span&gt;" style="html=1;points=[[0,0,0,0,5],[0,1,0,0,-5],[1,0,0,0,5],[1,1,0,0,-5]];perimeter=orthogonalPerimeter;outlineConnect=0;targetShapes=umlLifeline;portConstraint=eastwest;newEdgeStyle={&quot;curved&quot;:0,&quot;rounded&quot;:0};" vertex="1" parent="Av87Tej5Dab4ND_RzltO-22">
          <mxGeometry x="615" y="10" width="10" height="200" as="geometry" />
        </mxCell>
        <mxCell id="Av87Tej5Dab4ND_RzltO-32" value="" style="html=1;verticalAlign=bottom;endArrow=classic;curved=0;rounded=0;endFill=1;" edge="1" parent="Av87Tej5Dab4ND_RzltO-22">
          <mxGeometry x="0.0769" relative="1" as="geometry">
            <mxPoint x="495" y="130" as="sourcePoint" />
            <mxPoint x="615" y="130" as="targetPoint" />
            <mxPoint as="offset" />
            <Array as="points" />
          </mxGeometry>
        </mxCell>
        <mxCell id="Av87Tej5Dab4ND_RzltO-33" value="" style="html=1;verticalAlign=bottom;endArrow=none;curved=0;rounded=0;endFill=0;" edge="1" parent="Av87Tej5Dab4ND_RzltO-22">
          <mxGeometry x="0.0769" relative="1" as="geometry">
            <mxPoint x="354" y="97" as="sourcePoint" />
            <mxPoint x="484" y="97" as="targetPoint" />
            <mxPoint as="offset" />
            <Array as="points" />
          </mxGeometry>
        </mxCell>
        <mxCell id="Av87Tej5Dab4ND_RzltO-34" value="" style="html=1;verticalAlign=bottom;endArrow=none;curved=0;rounded=0;endFill=0;" edge="1" parent="Av87Tej5Dab4ND_RzltO-22">
          <mxGeometry x="0.0769" relative="1" as="geometry">
            <mxPoint x="495" y="97" as="sourcePoint" />
            <mxPoint x="615" y="97" as="targetPoint" />
            <mxPoint as="offset" />
            <Array as="points" />
          </mxGeometry>
        </mxCell>
        <mxCell id="Av87Tej5Dab4ND_RzltO-35" value="loop détection continue" style="shape=umlFrame;whiteSpace=wrap;html=1;pointerEvents=0;width=140;height=20;fillColor=#D5E8D4;" vertex="1" parent="Av87Tej5Dab4ND_RzltO-42">
          <mxGeometry x="50" y="710" width="783" height="80" as="geometry" />
        </mxCell>
        <mxCell id="Av87Tej5Dab4ND_RzltO-36" value="Résultats sauvegardés" style="html=1;verticalAlign=bottom;endArrow=open;dashed=1;endSize=8;curved=0;rounded=0;" edge="1" parent="Av87Tej5Dab4ND_RzltO-42">
          <mxGeometry x="0.1229" relative="1" as="geometry">
            <mxPoint x="245" y="420" as="targetPoint" />
            <mxPoint x="532" y="421" as="sourcePoint" />
            <mxPoint as="offset" />
          </mxGeometry>
        </mxCell>
        <mxCell id="Av87Tej5Dab4ND_RzltO-37" value="Afficher les résultats en temps réel" style="html=1;verticalAlign=bottom;endArrow=open;curved=0;rounded=0;endFill=0;" edge="1" parent="Av87Tej5Dab4ND_RzltO-42">
          <mxGeometry x="-0.5644" y="-7" relative="1" as="geometry">
            <mxPoint x="659" y="777" as="sourcePoint" />
            <mxPoint x="56" y="777" as="targetPoint" />
            <mxPoint as="offset" />
          </mxGeometry>
        </mxCell>
        <mxCell id="Av87Tej5Dab4ND_RzltO-38" value="" style="html=1;verticalAlign=bottom;endArrow=none;curved=0;rounded=0;endFill=0;" edge="1" parent="Av87Tej5Dab4ND_RzltO-42">
          <mxGeometry x="0.0769" relative="1" as="geometry">
            <mxPoint x="400" y="590" as="sourcePoint" />
            <mxPoint x="530" y="590" as="targetPoint" />
            <mxPoint as="offset" />
            <Array as="points" />
          </mxGeometry>
        </mxCell>
        <mxCell id="Av87Tej5Dab4ND_RzltO-39" value="" style="html=1;points=[[0,0,0,0,5],[0,1,0,0,-5],[1,0,0,0,5],[1,1,0,0,-5]];perimeter=orthogonalPerimeter;outlineConnect=0;targetShapes=umlLifeline;portConstraint=eastwest;newEdgeStyle={&quot;curved&quot;:0,&quot;rounded&quot;:0};" vertex="1" parent="Av87Tej5Dab4ND_RzltO-42">
          <mxGeometry x="827" y="720" width="10" height="60" as="geometry" />
        </mxCell>
        <mxCell id="Av87Tej5Dab4ND_RzltO-40" value="" style="html=1;points=[[0,0,0,0,5],[0,1,0,0,-5],[1,0,0,0,5],[1,1,0,0,-5]];perimeter=orthogonalPerimeter;outlineConnect=0;targetShapes=umlLifeline;portConstraint=eastwest;newEdgeStyle={&quot;curved&quot;:0,&quot;rounded&quot;:0};" vertex="1" parent="Av87Tej5Dab4ND_RzltO-42">
          <mxGeometry x="662" y="764" width="10" height="20" as="geometry" />
        </mxCell>
        <mxCell id="Av87Tej5Dab4ND_RzltO-41" value="" style="html=1;points=[[0,0,0,0,5],[0,1,0,0,-5],[1,0,0,0,5],[1,1,0,0,-5]];perimeter=orthogonalPerimeter;outlineConnect=0;targetShapes=umlLifeline;portConstraint=eastwest;newEdgeStyle={&quot;curved&quot;:0,&quot;rounded&quot;:0};" vertex="1" parent="Av87Tej5Dab4ND_RzltO-42">
          <mxGeometry x="388.69000000000005" y="721" width="10" height="65" as="geometry" />
        </mxCell>
      </root>
    </mxGraphModel>
  </diagram>
</mxfile>
